<?xml version="1.0" encoding="UTF-8" standalone="no"?>
<svg
   xmlns:dc="http://purl.org/dc/elements/1.1/"
   xmlns:cc="http://creativecommons.org/ns#"
   xmlns:rdf="http://www.w3.org/1999/02/22-rdf-syntax-ns#"
   xmlns:svg="http://www.w3.org/2000/svg"
   xmlns="http://www.w3.org/2000/svg"
   id="svg26"
   version="1.1"
   viewBox="0 0 86 120.31531"
   height="120.31532"
   width="86">
  <title
     id="title913">Logo for slides for W3C TPAC 2020</title>
  <metadata
     id="metadata2">
    <rdf:RDF>
         rdf:about=&quot;&quot;&gt;
      <cc:Work
   rdf:about="">
  <dc:format>image/svg+xml</dc:format>
  <dc:type
     rdf:resource="http://purl.org/dc/dcmitype/StillImage" />
  <dc:title>Logo for slides for W3C TPAC 2020</dc:title>
  <dc:date>2020-08-15</dc:date>
  <dc:creator>
    <cc:Agent>
      <dc:title>Bert Bos</dc:title>
    </cc:Agent>
  </dc:creator>
  <dc:description
     xml:lang="en">W3C logo in a white circle above the words &quot;TPAC 2020&quot;</dc:description>
  <dc:language>en</dc:language>
  <dc:publisher>
    <cc:Agent>
      <dc:title>http://www.w3.org/</dc:title>
    </cc:Agent>
  </dc:publisher>
  <cc:license
     rdf:resource="https://www.w3.org/Consortium/Legal/2002/ipr-notice-20021231#Copyright" />
</cc:Work>
</rdf:RDF>
  </metadata>
  <defs
     id="defs11">
    <linearGradient
       id="white-gray"
       x1="0"
       y1="0"
       x2="0"
       y2="86"
       gradientUnits="userSpaceOnUse">
      <stop
         offset="0%"
         stop-color="#fff"
         id="stop6" />
      <stop
         offset="100%"
         stop-color="#f6f6f6"
         id="stop8" />
    </linearGradient>
  </defs>
  <!-- A white circle with the W3C logo -->
  <g
     id="g890">
    <path
       id="path866"
       d="M 86.000002,92.184662 A 19.600725,19.600725 0 0 1 66.399277,111.78539 19.600725,19.600725 0 0 1 46.798552,92.184662 19.600725,19.600725 0 0 1 66.399277,72.583937 19.600725,19.600725 0 0 1 86.000002,92.184662 Z"
       style="fill:#103852;fill-opacity:1;stroke:none;stroke-width:2.90525985;stroke-linecap:butt;stroke-linejoin:miter;stroke-miterlimit:4;stroke-dasharray:none;stroke-dashoffset:0;stroke-opacity:1" />
    <g
       id="text850"
       style="font-style:normal;font-variant:normal;font-weight:bold;font-stretch:normal;font-size:14.66666698px;line-height:125%;font-family:Lato;-inkscape-font-specification:'Lato, Bold';font-variant-ligatures:normal;font-variant-caps:normal;font-variant-numeric:normal;font-feature-settings:normal;text-align:start;letter-spacing:0px;word-spacing:0px;writing-mode:lr-tb;text-anchor:start;fill:#ffffff;fill-opacity:1;stroke:none;stroke-width:1px;stroke-linecap:butt;stroke-linejoin:miter;stroke-opacity:1"
       aria-label="2020">
      <path
         id="path25"
         style=""
         d="m 53.644891,86.76533 q 0.733333,0 1.342,0.22 0.608667,0.212667 1.041333,0.608667 0.432667,0.396 0.674667,0.953333 0.242,0.557334 0.242,1.239334 0,0.586666 -0.176,1.085333 -0.168667,0.498667 -0.462,0.953333 -0.286,0.454667 -0.674667,0.88 -0.388666,0.425334 -0.814,0.865334 l -2.398,2.442 q 0.352,-0.102667 0.689334,-0.154 0.344666,-0.05867 0.652666,-0.05867 h 2.720667 q 0.293333,0 0.462,0.168667 0.176,0.161333 0.176,0.432666 v 1.085334 H 49.846224 V 96.88533 q 0,-0.183333 0.07333,-0.381333 0.08067,-0.205333 0.249333,-0.366667 l 3.219333,-3.226666 q 0.403334,-0.410667 0.718667,-0.784667 0.322667,-0.374 0.535333,-0.740667 0.212667,-0.366666 0.322667,-0.740666 0.117333,-0.381334 0.117333,-0.799334 0,-0.381333 -0.11,-0.667333 -0.11,-0.293333 -0.315333,-0.491333 -0.198,-0.198 -0.484,-0.293334 -0.278667,-0.102666 -0.630667,-0.102666 -0.322666,0 -0.601333,0.09533 -0.271333,0.088 -0.484,0.256667 -0.212667,0.161333 -0.359333,0.381333 -0.146667,0.22 -0.22,0.484 -0.124667,0.337333 -0.322667,0.447333 -0.198,0.11 -0.572,0.05133 l -0.953333,-0.168667 q 0.11,-0.762667 0.425333,-1.334667 0.315333,-0.579333 0.784667,-0.960666 0.476666,-0.388667 1.085333,-0.579334 0.616,-0.198 1.32,-0.198 z" />
      <path
         id="path27"
         style=""
         d="m 65.936704,92.184664 q 0,1.386 -0.300667,2.412666 -0.293333,1.019334 -0.821334,1.686667 -0.520666,0.667333 -1.239333,0.997333 -0.711333,0.322667 -1.54,0.322667 -0.828667,0 -1.54,-0.322667 -0.704,-0.33 -1.224667,-0.997333 -0.520666,-0.667333 -0.814,-1.686667 -0.293333,-1.026666 -0.293333,-2.412666 0,-1.393334 0.293333,-2.412667 0.293334,-1.019333 0.814,-1.686667 0.520667,-0.667333 1.224667,-0.99 0.711333,-0.33 1.54,-0.33 0.828667,0 1.54,0.33 0.718667,0.322667 1.239333,0.99 0.528001,0.667334 0.821334,1.686667 0.300667,1.019333 0.300667,2.412667 z m -1.870001,0 q 0,-1.151334 -0.168666,-1.906667 Q 63.72937,89.522664 63.44337,89.07533 63.164703,88.627997 62.798037,88.451997 62.43137,88.268664 62.03537,88.268664 q -0.388667,0 -0.755333,0.183333 -0.359334,0.176 -0.638,0.623333 -0.278667,0.447334 -0.447334,1.202667 -0.161333,0.755333 -0.161333,1.906667 0,1.151333 0.161333,1.906666 0.168667,0.755334 0.447334,1.202667 0.278666,0.447333 0.638,0.630667 0.366666,0.176 0.755333,0.176 0.396,0 0.762667,-0.176 0.366666,-0.183334 0.645333,-0.630667 0.286,-0.447333 0.454667,-1.202667 0.168666,-0.755333 0.168666,-1.906666 z" />
      <path
         id="path29"
         style=""
         d="m 70.660516,86.76533 q 0.733333,0 1.342,0.22 0.608667,0.212667 1.041333,0.608667 0.432667,0.396 0.674667,0.953333 0.242,0.557334 0.242,1.239334 0,0.586666 -0.176,1.085333 -0.168667,0.498667 -0.462,0.953333 -0.286,0.454667 -0.674667,0.88 -0.388666,0.425334 -0.814,0.865334 l -2.398,2.442 q 0.352,-0.102667 0.689334,-0.154 0.344666,-0.05867 0.652666,-0.05867 h 2.720667 q 0.293333,0 0.462,0.168667 0.176,0.161333 0.176,0.432666 v 1.085334 H 66.861849 V 96.88533 q 0,-0.183333 0.07333,-0.381333 0.08067,-0.205333 0.249333,-0.366667 l 3.219333,-3.226666 q 0.403334,-0.410667 0.718667,-0.784667 0.322667,-0.374 0.535333,-0.740667 0.212667,-0.366666 0.322667,-0.740666 0.117333,-0.381334 0.117333,-0.799334 0,-0.381333 -0.11,-0.667333 -0.11,-0.293333 -0.315333,-0.491333 -0.198,-0.198 -0.484,-0.293334 -0.278667,-0.102666 -0.630667,-0.102666 -0.322666,0 -0.601333,0.09533 -0.271333,0.088 -0.484,0.256667 -0.212667,0.161333 -0.359333,0.381333 -0.146667,0.22 -0.22,0.484 -0.124667,0.337333 -0.322667,0.447333 -0.198,0.11 -0.572,0.05133 l -0.953333,-0.168667 q 0.11,-0.762667 0.425333,-1.334667 0.315333,-0.579333 0.784667,-0.960666 0.476666,-0.388667 1.085333,-0.579334 0.616,-0.198 1.32,-0.198 z" />
      <path
         id="path31"
         style=""
         d="m 82.952329,92.184664 q 0,1.386 -0.300667,2.412666 -0.293333,1.019334 -0.821334,1.686667 -0.520666,0.667333 -1.239333,0.997333 -0.711333,0.322667 -1.54,0.322667 -0.828667,0 -1.54,-0.322667 -0.704,-0.33 -1.224667,-0.997333 -0.520666,-0.667333 -0.814,-1.686667 -0.293333,-1.026666 -0.293333,-2.412666 0,-1.393334 0.293333,-2.412667 0.293334,-1.019333 0.814,-1.686667 0.520667,-0.667333 1.224667,-0.99 0.711333,-0.33 1.54,-0.33 0.828667,0 1.54,0.33 0.718667,0.322667 1.239333,0.99 0.528001,0.667334 0.821334,1.686667 0.300667,1.019333 0.300667,2.412667 z m -1.870001,0 q 0,-1.151334 -0.168666,-1.906667 -0.168667,-0.755333 -0.454667,-1.202667 -0.278667,-0.447333 -0.645333,-0.623333 -0.366667,-0.183333 -0.762667,-0.183333 -0.388667,0 -0.755333,0.183333 -0.359334,0.176 -0.638,0.623333 -0.278667,0.447334 -0.447334,1.202667 -0.161333,0.755333 -0.161333,1.906667 0,1.151333 0.161333,1.906666 0.168667,0.755334 0.447334,1.202667 0.278666,0.447333 0.638,0.630667 0.366666,0.176 0.755333,0.176 0.396,0 0.762667,-0.176 0.366666,-0.183334 0.645333,-0.630667 0.286,-0.447333 0.454667,-1.202667 0.168666,-0.755333 0.168666,-1.906666 z" />
    </g>
  </g>
  <desc
     id="desc15">W3C</desc>
  <g
     id="g845">
    <path
       id="circle13"
       d="M 86,43 A 43,43 0 0 1 43,86 43,43 0 0 1 0,43 43,43 0 0 1 43,0 43,43 0 0 1 86,43 Z"
       style="fill:url(#white-gray)" />
    <svg
       version="1.1"
       viewBox="0 0 68 34"
       height="34"
       width="68"
       y="27"
       x="10"
       id="W3C">
      <path
         id="path17"
         style="fill:#005a9c"
         d="m 16.117,1.006 5.759,19.58 5.759,-19.58 h 4.17 11.444 V 2.952 L 37.37,13.08 c 2.065,0.663 3.627,1.868 4.686,3.615 1.059,1.748 1.589,3.799 1.589,6.155 0,2.914 -0.775,5.363 -2.324,7.348 -1.549,1.985 -3.555,2.978 -6.017,2.978 -1.854,0 -3.469,-0.589 -4.845,-1.767 -1.377,-1.178 -2.396,-2.773 -3.058,-4.786 l 3.256,-1.35 c 0.477,1.218 1.106,2.178 1.887,2.879 0.781,0.702 1.701,1.052 2.76,1.052 1.112,0 2.052,-0.622 2.82,-1.866 0.768,-1.245 1.152,-2.74 1.152,-4.489 0,-1.933 -0.411,-3.429 -1.231,-4.488 -0.954,-1.244 -2.45,-1.867 -4.489,-1.867 h -1.588 v -1.906 l 5.56,-9.612 h -6.712 l -0.382,0.65 -8.163,27.548 H 21.874 L 15.916,13.237 9.959,33.174 H 9.562 L 0.032,1.006 h 4.17 L 9.961,20.586 13.853,7.401 11.947,1.006 Z" />
      <path
         id="path19"
         d="m 64.92,1.006 c -0.819,0 -1.554,0.295 -2.111,0.861 -0.591,0.6 -0.92,1.376 -0.92,2.178 0,0.802 0.313,1.545 0.887,2.128 0.583,0.591 1.334,0.912 2.145,0.912 0.793,0 1.562,-0.321 2.161,-0.903 0.574,-0.557 0.887,-1.3 0.887,-2.136 0,-0.811 -0.321,-1.57 -0.878,-2.136 C 66.507,1.318 65.747,1.006 64.92,1.006 Z m 2.643,3.065 c 0,0.701 -0.271,1.351 -0.768,1.832 -0.524,0.507 -1.174,0.777 -1.892,0.777 -0.675,0 -1.342,-0.278 -1.84,-0.785 -0.498,-0.507 -0.777,-1.157 -0.777,-1.849 0,-0.692 0.287,-1.368 0.802,-1.891 0.481,-0.49 1.131,-0.751 1.84,-0.751 0.726,0 1.376,0.271 1.883,0.785 0.49,0.489 0.752,1.147 0.752,1.882 z M 65.004,2.264 h -1.3 v 3.445 h 0.65 V 4.24 h 0.642 l 0.701,1.469 h 0.726 L 65.654,4.139 C 66.152,4.037 66.439,3.7 66.439,3.21 c 0,-0.625 -0.472,-0.946 -1.435,-0.946 z m -0.118,0.422 c 0.608,0 0.886,0.169 0.886,0.591 0,0.405 -0.278,0.549 -0.87,0.549 h -0.549 v -1.14 z" />
      <path
         id="path21"
         d="m 59.807,0.825 0.676,4.107 -2.391,4.575 c 0,0 -0.918,-1.941 -2.443,-3.015 C 54.364,5.587 53.527,5.39 52.218,5.66 c -1.681,0.347 -3.587,2.357 -4.419,4.835 -0.995,2.965 -1.005,4.4 -1.04,5.718 -0.056,2.113 0.277,3.362 0.277,3.362 0,0 -1.452,-2.686 -1.438,-6.62 0.009,-2.808 0.451,-5.354 1.75,-7.867 1.143,-2.209 2.842,-3.535 4.35,-3.691 1.559,-0.161 2.791,0.59 3.743,1.403 1,0.854 2.01,2.721 2.01,2.721 z" />
      <path
         id="path23"
         d="m 60.102,24.063 c 0,0 -1.057,1.889 -1.715,2.617 -0.659,0.728 -1.837,2.01 -3.292,2.651 -1.455,0.641 -2.218,0.762 -3.656,0.624 -1.437,-0.138 -2.772,-0.97 -3.24,-1.317 -0.468,-0.347 -1.664,-1.369 -2.34,-2.322 -0.676,-0.953 -1.733,-2.859 -1.733,-2.859 0,0 0.589,1.91 0.958,2.721 0.212,0.467 0.864,1.894 1.789,3.136 0.863,1.159 2.539,3.154 5.086,3.604 2.547,0.451 4.297,-0.693 4.73,-0.97 0.433,-0.277 1.346,-1.042 1.924,-1.66 0.603,-0.645 1.174,-1.468 1.49,-1.962 0.231,-0.36 0.607,-1.092 0.607,-1.092 z" />
    </svg>
  </g>
  <g
     id="text846"
     style="font-style:normal;font-variant:normal;font-weight:900;font-stretch:normal;font-size:20px;line-height:125%;font-family:Lato;-inkscape-font-specification:'Lato, Heavy';font-variant-ligatures:normal;font-variant-caps:normal;font-variant-numeric:normal;font-feature-settings:normal;text-align:start;letter-spacing:0px;word-spacing:0px;writing-mode:lr-tb;text-anchor:start;fill:#c9242b;fill-opacity:1;stroke:none;stroke-width:1px;stroke-linecap:butt;stroke-linejoin:miter;stroke-opacity:1"
     aria-label="TPAC">
    <path
       id="path35"
       style=""
       d="m 11.6,105.56383 v 2.68 H 7.5 v 11.89 H 4.12 v -11.89 h -4.1 v -2.68 z" />
    <path
       id="path37"
       style=""
       d="m 16.6975,115.26383 v 4.87 h -3.38 v -14.57 h 5.14 q 1.54,0 2.64,0.37 1.11,0.36 1.82,1 0.72,0.64 1.06,1.51 0.34,0.87 0.34,1.88 0,1.09 -0.35,2 -0.35,0.91 -1.07,1.56 -0.72,0.65 -1.83,1.02 -1.1,0.36 -2.61,0.36 z m 0,-2.55 h 1.76 q 1.32,0 1.9,-0.63 0.58,-0.63 0.58,-1.76 0,-0.5 -0.15,-0.91 -0.15,-0.41 -0.46,-0.7 -0.3,-0.3 -0.77,-0.46 -0.46,-0.16 -1.1,-0.16 h -1.76 z" />
    <path
       id="path39"
       style=""
       d="m 38.10625,120.13383 h -2.62 q -0.44,0 -0.71,-0.2 -0.27,-0.21 -0.41,-0.53 l -0.86,-2.54 h -5.54 l -0.86,2.54 q -0.11,0.28 -0.4,0.51 -0.28,0.22 -0.7,0.22 h -2.64 l 5.64,-14.57 h 3.46 z m -9.36,-5.57 h 3.98 l -1.34,-3.99 q -0.15,-0.38 -0.32,-0.89 -0.17,-0.52 -0.34,-1.12 -0.16,0.61 -0.33,1.13 -0.16,0.52 -0.31,0.9 z" />
    <path
       id="path41"
       style=""
       d="m 48.60625,116.36383 q 0.12,0 0.24,0.05 0.12,0.04 0.23,0.15 l 1.34,1.41 q -0.88,1.15 -2.21,1.74 -1.32,0.58 -3.13,0.58 -1.66,0 -2.98,-0.56 -1.31,-0.57 -2.23,-1.56 -0.91,-1 -1.4,-2.36 -0.49,-1.37 -0.49,-2.97 0,-1.63 0.53,-2.99 0.53,-1.37 1.49,-2.36 0.96,-0.99 2.3,-1.54 1.34,-0.55 2.95,-0.55 0.82,0 1.54,0.15 0.73,0.14 1.36,0.4 0.63,0.25 1.16,0.61 0.53,0.36 0.94,0.78 l -1.14,1.53 q -0.11,0.14 -0.26,0.26 -0.15,0.11 -0.42,0.11 -0.18,0 -0.34,-0.08 -0.16,-0.08 -0.34,-0.19 -0.18,-0.12 -0.4,-0.25 -0.21,-0.14 -0.51,-0.25 -0.29,-0.12 -0.69,-0.2 -0.39,-0.08 -0.92,-0.08 -0.84,0 -1.54,0.31 -0.69,0.31 -1.2,0.91 -0.5,0.59 -0.78,1.46 -0.27,0.86 -0.27,1.97 0,1.12 0.3,1.99 0.31,0.87 0.83,1.47 0.53,0.59 1.23,0.9 0.7,0.31 1.5,0.31 0.46,0 0.84,-0.04 0.38,-0.05 0.71,-0.15 0.33,-0.11 0.62,-0.28 0.29,-0.18 0.59,-0.45 0.12,-0.1 0.26,-0.16 0.14,-0.07 0.29,-0.07 z" />
  </g>
</svg>
